<svg width="39" height="33" fill="none" xmlns="http://www.w3.org/2000/svg">
                            <path d="M34.8 6.1H20l-3.7-4.5C15.5.6 14.3 0 13 0H4A4.2 4.2 0 0 0 0 4.2v24.6C0 31.1 1.9 33 4.2 33h30.6c2.3 0 4.2-2 4.2-4.2V10.3C39 8 37.1 6 34.8 6zm-33 22.7V4.2c0-1.3 1-2.5 2.4-2.5H13c.7 0 1.4.4 1.8 1L17.8 6H8.6a4.2 4.2 0 0 0-4.2 4.2v21h-.2a2.5 2.5 0 0 1-2.5-2.5zm35.5 0c0 1.3-1.1 2.5-2.5 2.5H6.1v-21c0-1.4 1.1-2.4 2.5-2.4h26.2c1.4 0 2.5 1 2.5 2.4v18.5z" fill="#fff"></path>
                            <path d="M26.7 17.4h-3.4V14c0-.5-.4-.9-.8-.9H19c-.5 0-.8.4-.8.9v3.4h-3.4c-.5 0-.9.3-.9.8v3.5c0 .5.4.8.9.8h3.4V26c0 .5.3.9.8.9h3.5c.4 0 .8-.4.8-.9v-3.4h3.4c.5 0 .9-.3.9-.8v-3.5c0-.5-.4-.8-.9-.8zm-.9 3.4h-3.3c-.5 0-.9.4-.9.9V25H20v-3.3c0-.5-.4-.9-.9-.9h-3.3v-1.7H19c.5 0 .9-.4.9-.9V15h1.7v3.3c0 .5.4.9.9.9h3.3v1.7z" fill="#fff"></path>
                        </svg>