<svg width="45" height="45" fill="none" xmlns="http://www.w3.org/2000/svg">
                            <g clip-path="url(#clip0)" fill="#fff" stroke="#fff">
                                <path d="M29.8 2.1v.5h5.9a4 4 0 0 1 4 4v34a4 4 0 0 1-4 3.9H9.3a4 4 0 0 1-4-4v-34a4 4 0 0 1 4-3.9h5.9V.5h14.6v1.6zm-13.3-.8H16v3.4h13V1.3H16.5zM15.2 4v-.5H9.3a3.1 3.1 0 0 0-3.1 3.1v34c0 1.8 1.4 3.2 3.1 3.2h26.4c1.7 0 3.1-1.4 3.1-3.1v-34c0-1.8-1.4-3.2-3.1-3.2h-5.9v2.2H15.2V3.9z"></path>
                                <path d="M30.9 21l-1 1.4a1 1 0 0 1-1.7 0c-.4-.6-1-.9-1.7-.8L31 21zm0 0c.3-.6.9-.9 1.5-.9h2.4v.9h-2.4a1 1 0 0 0-.8.4l-1 1.5c-.3.5-.9.8-1.5.8s-1.2-.3-1.5-.8a1 1 0 0 0-1-.5 1 1 0 0 0-.8.6l-.5 1a1.8 1.8 0 0 1-1.9 1.1c-.8 0-1.4-.6-1.6-1.3l-1.1-4.4a1 1 0 0 0-1-.8 1 1 0 0 0-1 .8l-1 4.1c-.2.8-.8 1.4-1.6 1.4-.8.1-1.5-.3-1.8-1l-1-2.3a1 1 0 0 0-1-.6h-2m20.6 0H10.2m0 0V20h2.1c.8 0 1.4.5 1.7 1.1l1 2.3c.3.6.9.6 1 .6.2 0 .8-.1 1-.8l1-4c.1-1 .8-1.5 1.7-1.5.9 0 1.6.6 1.8 1.4l1.1 4.4c.2.6.7.7.9.7L10.2 21zM25 22.6l-.5 1.1a1 1 0 0 1-1 .6l1.5-1.7zm0 0c.3-.6.9-1 1.5-1l-1.5 1zM10.2 34.5v-.8h9.3v.8h-9.3zM10.2 39v-.8H30v.8H10.2z"></path>
                            </g>
                            <defs>
                                <clipPath id="clip0">
                                    <path fill="#fff" d="M0 0h45v45H0z"></path>
                                </clipPath>
                            </defs>
                        </svg>