<svg width="42" height="42" fill="none" xmlns="http://www.w3.org/2000/svg">
                            <g clip-path="url(#clip0)" fill="#fff" stroke="#fff" stroke-width=".6">
                                <path d="M41 40.2c-2.4 0-4.5-2-4.5-4.6V6.4c0-3.5-2.8-6.4-6.4-6.4H6.4A6.4 6.4 0 0 0 0 6.4c0 .5.4.9 1 .9h6.3v28.3c0 3.5 2.9 6.4 6.4 6.4h27.4a1 1 0 1 0 0-1.8zM2 5.5c.3-2.1 2.2-3.7 4.4-3.7h19.3c-1 1-1.7 2.3-1.9 3.7H1.9zm11.7 34.7c-2.5 0-4.6-2-4.6-4.6V7.3h15.6c.5 0 .9-.4.9-1a4.6 4.6 0 0 1 9.1 0v29.3c0 1.8.7 3.4 2 4.6h-23z"></path>
                                <path d="M30.1 12.8H13.7a1 1 0 1 0 0 1.8h16.4a1 1 0 1 0 0-1.8zM30.1 18.3H13.7a1 1 0 1 0 0 1.8h16.4a1 1 0 1 0 0-1.8zM30.1 23.7H13.7a1 1 0 1 0 0 1.9h16.4a1 1 0 1 0 0-1.9zM28.3 29.2H15.5a1 1 0 1 0 0 1.8h12.8a1 1 0 1 0 0-1.8z"></path>
                            </g>
                            <defs>
                                <clipPath id="clip0">
                                    <path fill="#fff" d="M0 0h42v42H0z"></path>
                                </clipPath>
                            </defs>
                        </svg>