<svg width="50" height="40" viewBox="0 0 50 40" fill="none" xmlns="http://www.w3.org/2000/svg">
                            <path d="M50 13.6538C50 15.0755 49.767 16.4781 49.3149 17.8264C47.1911 27.436 28.8264 39.0609 28.045 39.5556C27.8009 39.7072 27.527 39.7864 27.2477 39.7864C26.969 39.7864 26.6914 39.7162 26.4472 39.5556C26.2372 39.4189 21.063 36.1537 15.8171 31.6656C15.1889 31.1241 15.123 30.1901 15.6501 29.5646C16.1899 28.9445 17.1228 28.8689 17.7521 29.396C21.6624 32.7368 25.6143 35.4377 27.2552 36.526C32.7708 32.9299 44.9471 23.7809 46.4396 17.0334C46.8295 15.8414 47.0055 14.7575 47.0055 13.657C47.0055 9.82633 44.92 6.29513 41.5617 4.44523C37.2732 2.06557 31.5326 3.16285 28.395 6.9451C27.8312 7.62804 26.6717 7.62804 26.0973 6.9451C22.9501 3.16019 17.2138 2.07142 12.9311 4.44098C9.56216 6.29513 7.47665 9.8242 7.47665 13.6511C7.47665 14.7442 7.66175 15.8329 8.0064 16.8845C8.22767 17.8685 8.65104 18.8306 9.18984 19.829H17.8893L20.8769 12.9629C21.1327 12.3751 21.7438 12.0055 22.3725 12.0714C23.0129 12.1273 23.5469 12.5879 23.6894 13.2134L25.8888 22.5118L28.7338 17.8466C29.0019 17.4036 29.4843 17.1329 30.0055 17.1329H35.4047C36.2264 17.1329 36.8945 17.7982 36.8945 18.6237C36.8945 19.445 36.2264 20.1141 35.4047 20.1141H30.8422L26.5563 27.1541C26.2829 27.603 25.801 27.8711 25.2888 27.8711C25.2074 27.8711 25.1287 27.8647 25.0558 27.8536C24.4554 27.7573 23.9825 27.3148 23.8384 26.727L21.8284 18.2573L20.2402 21.9129C20.003 22.4624 19.4652 22.8092 18.8722 22.8092H1.49033C0.674425 22.8086 0 22.1416 0 21.3188C0 20.4976 0.674425 19.8285 1.49033 19.8285H5.8608C5.55071 19.0886 5.30019 18.3706 5.14489 17.6759C4.72895 16.4696 4.50397 15.0649 4.50397 13.6506C4.50397 8.7349 7.1772 4.20908 11.4966 1.82941C16.4995 -0.937991 23.1198 -0.0678246 27.2541 3.81708C31.3773 -0.0683565 37.9928 -0.937991 43.0042 1.82941C47.3183 4.20588 50 8.7349 50 13.6538Z" fill="white"></path>
                        </svg>