<svg width="38" height="33" fill="none" xmlns="http://www.w3.org/2000/svg">
                            <mask id="a" fill="#fff">
                                <path d="M24.2 27.8c-2.4 1.6-5 2.5-7.9 3a1 1 0 1 0 .3 1.8c3-.5 6-1.6 8.6-3.2.6-.4 1-1 1.2-1.6a17.8 17.8 0 0 0 1.4 0 17 17 0 0 0 9-2.5c.7-.5 1.1-1.2 1.1-2a10 10 0 0 0-6.6-9.5 5.8 5.8 0 1 0-7 0c-1.3.5-2.5 1.3-3.6 2.3a13 13 0 0 0-3.4-1.7 7.5 7.5 0 1 0-8 0A13.2 13.2 0 0 0 0 27c0 1 .4 1.8 1.3 2.4A22.4 22.4 0 0 0 12 32.8a1 1 0 0 0 0-1.9c-3.4-.2-6.8-1.2-9.7-3A1 1 0 0 1 2 27a11.4 11.4 0 0 1 22.8 0c0 .3-.2.6-.5.8.3-.2-2.4 1.6 0 0zM7.6 8.1A5.7 5.7 0 1 1 19 8 5.7 5.7 0 0 1 7.6 8zm20.2-3a4 4 0 0 1 0 8 4 4 0 0 1 0-8zm-1 10l1-.1a8.3 8.3 0 0 1 8.3 8.3c0 .2 0 .3-.2.4a15.1 15.1 0 0 1-9.4 2.3 13.1 13.1 0 0 0-4.3-8.8c1.3-1.2 2.9-2 4.6-2.1z"></path>
                            </mask>
                            <path d="M24.2 27.8c-2.4 1.6-5 2.5-7.9 3a1 1 0 1 0 .3 1.8c3-.5 6-1.6 8.6-3.2.6-.4 1-1 1.2-1.6a17.8 17.8 0 0 0 1.4 0 17 17 0 0 0 9-2.5c.7-.5 1.1-1.2 1.1-2a10 10 0 0 0-6.6-9.5 5.8 5.8 0 1 0-7 0c-1.3.5-2.5 1.3-3.6 2.3a13 13 0 0 0-3.4-1.7 7.5 7.5 0 1 0-8 0A13.2 13.2 0 0 0 0 27c0 1 .4 1.8 1.3 2.4A22.4 22.4 0 0 0 12 32.8a1 1 0 0 0 0-1.9c-3.4-.2-6.8-1.2-9.7-3A1 1 0 0 1 2 27a11.4 11.4 0 0 1 22.8 0c0 .3-.2.6-.5.8.3-.2-2.4 1.6 0 0zM7.6 8.1A5.7 5.7 0 1 1 19 8 5.7 5.7 0 0 1 7.6 8zm20.2-3a4 4 0 0 1 0 8 4 4 0 0 1 0-8zm-1 10l1-.1a8.3 8.3 0 0 1 8.3 8.3c0 .2 0 .3-.2.4a15.1 15.1 0 0 1-9.4 2.3 13.1 13.1 0 0 0-4.3-8.8c1.3-1.2 2.9-2 4.6-2.1z" fill="#fff"></path>
                            <path d="M16.3 30.8l-.6-4 .6 4zm-.8 1l-4 .6 4-.6zm1 .8l-.5-4 .6 4zm8.7-3.2L23.1 26l2.1 3.4zm1.2-1.6l.3-4-3.2-.2-1 3 3.9 1.2zm.6 0l.2-4-.2 4zm9.9-2.5l2 3.3h.1l-2.1-3.3zm-2-9.1L32.2 19l2.9-2.8zm-3.6-2.4L29 10.6 23.1 15l6.9 2.6 1.3-3.8zm-7 0l1.4 3.8 6.8-2.6-5.8-4.4-2.4 3.2zm-3.6 2.3l-2.2 3.3 2.7 1.8 2.3-2.3-2.8-2.8zm-3.4-1.7L15.2 11 8 15.6l8.1 2.6 1.2-3.8zm-8 0l1.2 3.8 8-2.6-7.1-4.6-2.2 3.4zm-8 15l-2 3.3 2-3.3zM12 32.8l-.3 4 .3-4zm1-.9l-4-.2 4 .2zm-1-1l.3-4-.2 4zm-9.7-3L.2 31.1l2.1-3.4zm19-9l-2.8 2.9 2.9-2.9zm3 9l2 3.3-2-3.4zm3.5-14.7v4-4zm0 0v4-4zm0 1.8v-4 4zm5.9 2.4l-2.8 2.9 2.8-2.9zm2.2 6.3l2.1 3.4-2.1-3.4zM27 26l.2-4-.2 4zm-.6 0l-4 .3.2 3.4 3.4.3.4-4zm-3.9-8.3l-2.8 2.8 2.8-2.8zm-.4-.5l-2.7-3-3.2 3 3.2 3 2.7-3zm0 7.2c-2 1.3-4.2 2-6.5 2.4l1.2 8c3.4-.6 6.6-1.8 9.5-3.6L22 24.4zm-6.5 2.4a5 5 0 0 0-4.1 5.6l8-1.2a3 3 0 0 1-2.7 3.5l-1.2-7.9zm-4.1 5.6a5 5 0 0 0 5.6 4.1L16 28.6a3 3 0 0 1 3.5 2.6l-8 1.2zm5.6 4.1c3.6-.5 7-1.8 10.1-3.8L23.1 26a18.1 18.1 0 0 1-7.1 2.6l1.2 8zm10.1-3.8a6.8 6.8 0 0 0 3-3.7l-7.7-2.3c0-.3.2-.6.5-.7l4.2 6.7zm-1.2-1l.7.1.4-8h-.5l-.6 8zm.6.1h1.1v-8h-.6l-.5 8zm1.1 0c4 0 7.8-1 11.2-3.2L34.7 22a13 13 0 0 1-6.9 2v8zM39 28.7c1.8-1.1 3-3.1 3-5.3h-8c0-.6.2-1.1.7-1.4l4.3 6.7zm3-5.3a14 14 0 0 0-4.2-10L32.1 19a6 6 0 0 1 1.8 4.3h8zm-4.2-10a14.1 14.1 0 0 0-5-3.2L30 17.6c.8.3 1.5.7 2.1 1.4l5.7-5.7zm-4 3.7c2.3-1.8 3.9-4.6 3.9-7.9h-8c0 .6-.3 1.2-.8 1.5l4.9 6.4zm3.9-7.9c0-5.4-4.4-9.8-9.9-9.8v8c1 0 1.9.8 1.9 1.8h8zM27.8-.7A9.9 9.9 0 0 0 18 9h8c0-1 .8-1.8 1.8-1.8v-8zM18 9c0 3.3 1.5 6.1 3.9 8l4.8-6.5c-.5-.3-.7-.9-.7-1.5h-8zm4.9 1c-1.8.7-3.5 1.7-5 3.1l5.6 5.7c.6-.6 1.4-1 2.2-1.3L22.9 10zm.1 2.7a17 17 0 0 0-4.4-2.2L16 18.2a9 9 0 0 1 2.4 1.2l4.5-6.6zm-3.5 5c3.2-2 5.3-5.6 5.3-9.7h-8c0 1.2-.6 2.3-1.6 3l4.3 6.7zM24.8 8c0-6.4-5.2-11.5-11.5-11.5v8c2 0 3.5 1.5 3.5 3.5h8zM13.3-3.4C6.9-3.4 1.8 1.7 1.8 8h8c0-2 1.5-3.5 3.5-3.5v-8zM1.8 8c0 4 2.1 7.6 5.3 9.7l4.3-6.8c-1-.6-1.6-1.7-1.6-3h-8zM8 10.6C1.1 12.8-4 19.3-4 27h8c0-4 2.8-7.6 6.5-8.8L8 10.6zM-4 27c0 2.3 1.2 4.5 3.2 5.7L3.5 26c.4.2.6.6.6 1h-8zm3.2 5.7c3.8 2.4 8.1 3.8 12.5 4l.5-8c-3-.1-6.1-1-8.7-2.7l-4.3 6.7zm12.6 4h.2v-8h.2l-.4 8zm.2 0a5 5 0 0 0 5-4.6l-8-.4a3 3 0 0 1 3-3v8zm5-4.6a5 5 0 0 0-4.7-5.1l-.5 8A3 3 0 0 1 9 31.6l8 .4zM12.2 27c-2.8-.2-5.5-1-7.8-2.6L.2 31.2c3.5 2.2 7.5 3.5 11.6 3.7l.5-8zm-7.8-2.6A3 3 0 0 1 5.9 27h-8a5 5 0 0 0 2.3 4.2l4.3-6.8zM5.9 27c0-4 3.3-7.4 7.4-7.4v-8c-8.5 0-15.4 7-15.4 15.4h8zm7.4-7.4c2 0 3.8.8 5.2 2.2l5.7-5.7c-3-2.9-6.8-4.5-11-4.5v8zm5.2 2.2a7.3 7.3 0 0 1 2.2 5.2h8c0-4.1-1.6-8-4.5-10.9l-5.7 5.7zm2.2 5.2c0-1 .5-2 1.4-2.6l4.3 6.8a5 5 0 0 0 2.3-4.2h-8zm1.4-2.6l-1 .7.6-.3c5 1.8 3.7 7 3.7 7a226.5 226.5 0 0 1 1-.6h-.1l-.8.4c-4.8-2-3.6-7-3.5-7a6.3 6.3 0 0 1 0-.1h.1l4.3 6.7a3.2 3.2 0 0 1 .1 0c.1-.1 1.3-5.2-3.5-7.2a8.2 8.2 0 0 0-.8.4H22l-.2.2-.6.3-.2.2s-1.4 5.2 3.6 7l.6-.2 1-.7-4.2-6.8zM11.6 8.1c0-1 .7-1.7 1.7-1.7v-8A9.7 9.7 0 0 0 3.6 8h8zm1.7-1.7c1 0 1.7.7 1.7 1.7h8c0-5.4-4.4-9.7-9.7-9.7v8zM15 8c0 1-.8 1.7-1.7 1.7v8c5.3 0 9.7-4.4 9.7-9.7h-8zm-1.7 1.7c-1 0-1.7-.8-1.7-1.7h-8c0 5.3 4.3 9.7 9.7 9.7v-8zM27.8 9h8a8 8 0 0 0-8-8v8zm0 0v8a8 8 0 0 0 8-8h-8zm0 0v8-8zm0 0v8-8zm0 0h-8a8 8 0 0 0 8 8v-8zm0 0v-8a8 8 0 0 0-8 8h8zm-.5 10l.5-.1v-8h-1.5l1 8zm.5-.1c1.2 0 2.2.4 3 1.3l5.7-5.7a12.3 12.3 0 0 0-8.7-3.6v8zm3 1.3c.9.8 1.3 1.8 1.3 3h8c0-3.3-1.3-6.4-3.6-8.7L31 20.3zm1.3 3c0-1.2.6-2.3 1.7-3l4.2 6.8c1.3-.8 2.1-2.3 2.1-3.8h-8zm1.7-3a11.1 11.1 0 0 1-6 1.8v8c3.6 0 7.2-1 10.2-3l-4.2-6.8zm-6 1.8h-.5l-.5 8h1v-8zm-.6 0h-.4l-.7 7.9h.8l.3-8zm3.3 3.6c-.3-4.1-2.1-8-5-10.9l-5.7 5.7a9.1 9.1 0 0 1 2.7 5.8l8-.6zm-5-10.9l-.6-.5-5.4 5.9.3.3 5.7-5.7zm-.6 5.4c.7-.7 1.5-1 2.4-1.2l-1-8c-2.5.4-5 1.5-6.8 3.3l5.4 5.9z" fill="#fff" mask="url(#a)"></path>
                        </svg>