<svg width="38" height="45" viewBox="0 0 38 45" version="1.1" xmlns="http://www.w3.org/2000/svg" xmlns:xlink="http://www.w3.org/1999/xlink">
                            <defs>
                                <path d="M0.06,42.2096114 L0.06,37.7903886 C1.20683869,16.727045 18.6504208,0 40,0 C62.091,0 80,17.909 80,40 C80,62.091 62.091,80 40,80 C18.6504208,80 1.20683869,63.272955 0.06,42.2096114 Z" id="path-1"></path>
                                <path d="M15.373,3.423 C14.196,3.631 13.177,4.338 12.562,5.403 C11.823,6.682 11.823,8.21 12.562,9.489 L19.718,21.883 C20.456,23.163 21.779,23.926 23.256,23.926 C24.734,23.926 26.056,23.163 26.795,21.883 L33.951,9.489 C34.689,8.21 34.689,6.682 33.95,5.403 C33.329,4.328 32.296,3.617 31.104,3.417 C30.71,4.062 29.999,4.492 29.187,4.492 C27.947,4.492 26.941,3.487 26.941,2.246 C26.941,1.006 27.947,0 29.187,0 C30.04,0 30.782,0.475 31.162,1.176 C33.137,1.404 34.865,2.532 35.88,4.289 C37.021,6.266 37.021,8.626 35.88,10.603 L28.724,22.997 C27.772,24.645 26.192,25.737 24.37,26.055 L24.37,32.032 C24.37,39.1 19.924,44.85 14.459,44.85 C8.993,44.85 4.547,39.1 4.547,32.032 L4.547,24.915 C2.009,24.398 0.094,22.149 0.094,19.46 C0.094,16.391 2.591,13.894 5.661,13.894 C8.73,13.894 11.228,16.391 11.228,19.46 C11.228,22.149 9.312,24.398 6.775,24.915 L6.775,32.032 C6.775,37.872 10.222,42.622 14.459,42.622 C18.695,42.622 22.142,37.872 22.142,32.032 L22.142,26.055 C20.32,25.737 18.74,24.645 17.788,22.997 L10.633,10.603 C9.491,8.626 9.491,6.266 10.633,4.289 C11.64,2.544 13.351,1.42 15.308,1.18 C15.688,0.478 16.431,0 17.286,0 C18.527,0 19.532,1.006 19.532,2.246 C19.532,3.487 18.527,4.492 17.286,4.492 C16.477,4.492 15.768,4.065 15.373,3.423 Z" id="path-3"></path>
                            </defs>
                            <g id="UI" stroke="none" stroke-width="1" fill="none" fill-rule="evenodd">
                                <mask id="mask-4" fill="white">
                                    <use xlink:href="#path-3"></use>
                                </mask>
                                <g id="Clip-5"></g>
                                <polygon id="Fill-4" fill="#FFFFFF" mask="url(#mask-4)" points="0.02 44.96 36.74 44.96 36.74 -0.04 0.02 -0.04"></polygon>
                            </g>
                        </svg>