<svg class="see-pass" viewBox="0 0 21 15" fill="none" xmlns="http://www.w3.org/2000/svg">
                                            <path d="M20.9511 7.24698C20.9441 7.22957 20.9363 7.21243 20.9279 7.19557C19.9966 5.34906 18.5473 3.78715 16.7368 2.67861C14.8765 1.5396 12.7199 0.937622 10.5002 0.937622C8.28049 0.937622 6.12377 1.53969 4.2635 2.6788C2.4596 3.78325 1.01435 5.33794 0.0827079 7.17556C-0.0217027 7.36649 -0.0294656 7.59735 0.0720339 7.79866C1.00319 9.64544 2.45252 11.2076 4.26321 12.3164C6.12358 13.4556 8.2803 14.0576 10.5002 14.0576C12.72 14.0576 14.8767 13.4556 16.737 12.3164C18.5477 11.2078 19.9969 9.64572 20.9281 7.79912C21.0153 7.62616 21.0234 7.42596 20.9511 7.24698ZM10.5002 12.6679C6.75625 12.6679 3.27878 10.6494 1.54261 7.49748C3.27878 4.34558 6.75625 2.32713 10.5002 2.32713C14.244 2.32713 17.7216 4.34577 19.4578 7.49758C17.7215 10.6492 14.2439 12.6679 10.5002 12.6679Z" fill="#888888"></path>
                                            <path d="M10.5002 4.44812C8.73896 4.44812 7.30603 5.81614 7.30603 7.49756C7.30603 9.17898 8.73896 10.547 10.5002 10.547C12.2614 10.547 13.6943 9.17898 13.6943 7.49756C13.6943 5.81614 12.2614 4.44812 10.5002 4.44812ZM10.5002 9.1574C9.54154 9.1574 8.76157 8.41276 8.76157 7.49756C8.76157 6.58237 9.54154 5.83773 10.5002 5.83773C11.4588 5.83773 12.2387 6.58237 12.2387 7.49756C12.2387 8.41276 11.4588 9.1574 10.5002 9.1574Z" fill="#888888"></path>
                                        </svg>