<svg xmlns="http://www.w3.org/2000/svg" width="25" height="29" viewBox="0 0 25 29"><g><g><g><g><path fill="none" stroke="#fff" stroke-miterlimit="50" stroke-width="1.4" d="M12.447 28v0s10.493-6.866 11.32-12.376c.084-.559 0-1.403.128-11.921C16.095.099 8.805.099 1 3.703c0 10.096.038 11.396.112 11.921C1.894 21.185 12.447 28 12.447 28z"></path></g><g><path fill="#fff" d="M18.554 15.022h-3.975a.561.561 0 0 0-.564.564v3.947h-3.38v-3.947a.561.561 0 0 0-.563-.564H6.128v-3.383h3.944c.313 0 .563-.251.563-.564V7.128h3.412v3.947c0 .313.25.564.563.564h3.944zm.542-4.511H15.15V6.564A.562.562 0 0 0 14.586 6h-4.511a.562.562 0 0 0-.564.564v3.947H5.564a.562.562 0 0 0-.564.564v4.51c0 .314.25.564.564.564H9.51v3.947c0 .314.25.564.564.564h4.51c.314 0 .564-.25.564-.564V16.15h3.947c.314 0 .564-.25.564-.563v-4.511c-.031-.314-.282-.564-.564-.564z"></path></g></g></g></g></svg>