<svg xmlns="http://www.w3.org/2000/svg" width="22" height="25" viewBox="0 0 22 25"><g><g><g><path fill="#fff" d="M21.06 9.943l.107 12.85c0 1.22-.987 2.207-2.2 2.207h-5.425a.946.946 0 0 1-.943-.943c0-.031.012-.07.012-.1 0-.038-.012-.07-.012-.107v-6.708c0-.126-.189-.315-.497-.315H8.858c-.308 0-.503.189-.503.315v6.708c0 .037-.006.069-.006.106 0 .032.006.07.006.101a.942.942 0 0 1-.943.943H2.2C.987 25 0 24.013 0 22.8V10.29c0-.007.006-.014.006-.02 0-.12.025-.232.07-.34v-.006a.995.995 0 0 1 .207-.301l.006-.007L9.876.268a.94.94 0 0 1 1.302-.013l9.587 9.01a.897.897 0 0 1 .214.302l.006.005c.044.107.07.22.076.334V9.943zM19.272 22.79l-.1-12.43-8.633-8.112-8.652 8.44V22.79c0 .17.145.314.314.314h4.266v-5.97c0-1.212 1.075-2.199 2.388-2.199h3.242c1.313 0 2.381.987 2.381 2.2v5.969h4.48a.32.32 0 0 0 .314-.314z"></path></g></g></g></svg>