<svg xmlns="http://www.w3.org/2000/svg" width="30" height="23" viewBox="0 0 30 23"><g><g><g><path fill="#fff" d="M25.39 9.418c2.532 0 3.897 2.106 3.897 4.086v4.17c0 .495-.4.894-.894.894h-7.914v3.537c0 .495-.4.895-.895.895H.894A.894.894 0 0 1 0 22.105V17.06c0-1.515.611-3.024 1.636-4.026.844-.83 1.912-1.282 3.03-1.247h.006c.439 0 1.848-.006 3.554-.018 1.654-.006 3.585-.017 5.2-.023.655-1.408 1.906-2.29 3.31-2.29h.066c.321 0 1.364-.007 2.64-.013 2.017-.012 4.617-.024 5.948-.024zm-6.7 7.325c0-1.545-.93-3.209-2.97-3.209-1.676 0-4.917.012-7.485.024-1.72.012-3.139.006-3.587.018-.81-.042-1.407.387-1.76.733-.688.674-1.099 1.706-1.099 2.75v4.152h16.9zm8.808-3.239c0-.793-.44-2.296-2.108-2.296-1.33 0-3.925.012-5.939.024-1.28.006-2.327.012-2.666.012-.492 0-.893.208-1.203.5h.138c3.092 0 4.759 2.571 4.759 4.999v.036h7.019zm-6.373-4.517a4.345 4.345 0 0 1-4.337-4.347c0-2.395 1.946-4.348 4.337-4.348a4.35 4.35 0 0 1 4.338 4.348c0 2.4-1.946 4.347-4.338 4.347zm-2.548-4.352a2.553 2.553 0 0 0 2.548 2.553 2.553 2.553 0 0 0 0-5.106 2.553 2.553 0 0 0-2.548 2.553zm-8.337 6.024a5.338 5.338 0 0 1-5.332-5.333A5.337 5.337 0 0 1 10.24 0c2.94 0 5.33 2.392 5.33 5.327a5.337 5.337 0 0 1-5.33 5.332zM6.698 5.327A3.545 3.545 0 0 0 10.24 8.87a3.544 3.544 0 0 0 3.54-3.543 3.543 3.543 0 0 0-3.54-3.538 3.543 3.543 0 0 0-3.542 3.538z"></path></g></g></g></svg>