<svg xmlns="http://www.w3.org/2000/svg" xmlns:xlink="http://www.w3.org/1999/xlink">
<path d="M118.657 59.84c0 32.397-26.286 58.66-58.713 58.66-32.426 0-58.712-26.263-58.712-58.66 0-32.395 26.286-58.658 58.712-58.658 32.427 0 58.713 26.263 58.713 58.659z" fill="#fff" stroke="#14C1C5"/><path d="M38.74 41.283a4.447 4.447 0 0 1 4.439-4.444h41.485a4.447 4.447 0 0 1 4.439 4.444v30.648a4.447 4.447 0 0 1-4.44 4.444h-12.34v-.977h12.34a3.465 3.465 0 0 0 3.464-3.466v-30.65a3.465 3.465 0 0 0-3.463-3.466H43.179a3.465 3.465 0 0 0-3.464 3.466v15.32h-.975v-15.32z" fill="#000" stroke="#14C1C5"/><path d="M42.69 41.283a.489.489 0 1 1 .978 0 .489.489 0 0 1-.977 0zm3.952 0a.489.489 0 1 1 .977 0 .489.489 0 0 1-.977 0zm3.951 0a.489.489 0 1 1 .977 0 .489.489 0 0 1-.977 0zm-7.903 3.954c0-.27.22-.489.49-.489h41.483a.489.489 0 0 1 0 .977H43.18a.489.489 0 0 1-.49-.488zm0 3.955c0-.27.22-.489.49-.489h7.9a.489.489 0 0 1 0 .977h-7.9a.489.489 0 0 1-.49-.488zm0 3.955c0-.27.22-.489.49-.489h3.949a.489.489 0 0 1 0 .978h-3.95a.489.489 0 0 1-.488-.49zm14.817.989v-.5h-3.95v-.49c0-.27.218-.488.487-.488h3.95c.27 0 .489.218.489.489v1.477h-.976v-.488zm5.427-3.466h-.5v5.932h-.976v-6.42c0-.272.219-.49.488-.49h3.95c.27 0 .489.218.489.49v9.386h-.976V50.67h-2.476zm9.877 19.785h.5V57.591h-2.976v7.91h-.975v-8.4c0-.27.219-.488.488-.488h3.95c.27 0 .489.218.489.489v13.353h2.975V50.181c0-.27.219-.489.488-.489h3.95c.27 0 .488.218.488.49v20.273h2.964v.977H72.323v-.977h.488zm5.926-19.785h-.5v19.785h2.976V50.67h-2.476zM50.092 94.183a18.14 18.14 0 0 0 12.188-4.662l.392-.352-.372-.373-12.54-12.553-.002-.001-.006-.007a.5.5 0 0 1-.093-.14l-.005-.01a.563.563 0 0 0-.01-.036l-.004-.01a.445.445 0 0 1-.024-.12v-.001l.476 18.265zm12.898-6.08l.372.374.353-.392a18.154 18.154 0 0 0 4.63-11.184l.028-.526H51.272l.852.853L62.99 88.104zM50.58 74.898v.5h17.796l-.03-.528c-.53-9.3-7.944-16.722-17.236-17.252l-.528-.03v17.309zm-19.742.99c0-10.646 8.62-19.275 19.255-19.275 10.628.012 19.243 8.634 19.255 19.275 0 10.645-8.621 19.273-19.255 19.273-10.634 0-19.255-8.628-19.255-19.274z" fill="#000" stroke="#14C1C5"/>
</svg>