<svg xmlns="http://www.w3.org/2000/svg" xmlns:xlink="http://www.w3.org/1999/xlink">
<path d="M118.5 59.159c0 32.396-26.286 58.659-58.713 58.659-32.426 0-58.712-26.263-58.712-58.659S27.36.5 59.787.5C92.214.5 118.5 26.763 118.5 59.159z" fill="#fff" stroke="#14C1C5"/><path d="M34.347 39.637v-.972H85.28v.972H34.347zm8.181 18.328l-.01-.012-.012-.01a6.517 6.517 0 0 1-2.05-4.749c0-3.602 2.93-6.533 6.527-6.533s6.526 2.93 6.526 6.533a6.517 6.517 0 0 1-2.05 4.749l-.01.01-.01.011a.273.273 0 0 1-.029.027l-.014.01-.013.013a6.495 6.495 0 0 1-4.4 1.713 6.495 6.495 0 0 1-4.401-1.713l-.013-.012-.014-.011a.258.258 0 0 1-.027-.026zm.698-.634l-.214.38.346.264a5.966 5.966 0 0 0 3.625 1.223 5.97 5.97 0 0 0 3.624-1.223l.347-.264-.214-.38a4.294 4.294 0 0 0-3.757-2.19c-1.58 0-2.998.843-3.757 2.19zm7.767-.595l.396.588.421-.57a5.977 5.977 0 0 0 1.171-3.56c0-3.31-2.69-6.004-5.998-6.004-3.309 0-5.999 2.694-5.999 6.004 0 1.332.436 2.564 1.172 3.56l.42.57.396-.588a4.799 4.799 0 0 1 2.038-1.71l.584-.258-.39-.505a2.24 2.24 0 0 1-.47-1.375v-.496a2.254 2.254 0 0 1 2.249-2.253c1.24 0 2.25 1.01 2.25 2.252v.497c0 .518-.176.994-.471 1.375l-.39.505.583.258a4.8 4.8 0 0 1 2.038 1.71zm-5.732-4.344v.496c0 .95.771 1.724 1.722 1.724.95 0 1.722-.773 1.722-1.724v-.496c0-.95-.772-1.724-1.722-1.724s-1.722.773-1.722 1.724zm12.569-5.731h7.433a1.2 1.2 0 0 1 .684.194c.156.11.193.218.193.282 0 .064-.037.171-.193.282a1.2 1.2 0 0 1-.684.194h-7.434a1.2 1.2 0 0 1-.684-.194c-.156-.11-.192-.218-.192-.282 0-.064.036-.171.192-.282a1.2 1.2 0 0 1 .684-.194zm0 4.281h7.433a1.2 1.2 0 0 1 .684.194c.156.111.193.218.193.282 0 .065-.037.172-.193.282a1.2 1.2 0 0 1-.684.194h-7.434a1.2 1.2 0 0 1-.684-.194c-.156-.11-.192-.217-.192-.282 0-.064.036-.171.192-.282a1.2 1.2 0 0 1 .684-.194zm0 16.74h19.547a1.2 1.2 0 0 1 .684.193c.156.111.192.218.192.282 0 .065-.035.172-.192.283a1.2 1.2 0 0 1-.684.193H57.83a1.2 1.2 0 0 1-.685-.193c-.156-.111-.192-.218-.192-.282 0-.065.036-.172.192-.283a1.2 1.2 0 0 1 .684-.193zm0-5.465h19.547a1.2 1.2 0 0 1 .684.194c.156.11.192.217.192.282 0 .064-.035.171-.192.282a1.2 1.2 0 0 1-.684.194H57.83a1.2 1.2 0 0 1-.685-.194c-.156-.111-.192-.218-.192-.282 0-.065.036-.172.192-.282a1.2 1.2 0 0 1 .684-.194zm0-5.465h19.547a1.2 1.2 0 0 1 .684.194c.156.11.192.218.192.282 0 .064-.035.171-.192.282a1.2 1.2 0 0 1-.684.194H57.83a1.2 1.2 0 0 1-.685-.194c-.156-.11-.192-.218-.192-.282 0-.065.036-.172.192-.282a1.2 1.2 0 0 1 .684-.194z" fill="#000" stroke="#14C1C5"/><path d="M30.68 42.125a3.455 3.455 0 0 1 2.952-3.42v.993a2.478 2.478 0 0 0-1.976 2.427v30.16H87.97v-30.16a2.478 2.478 0 0 0-1.975-2.427v-.992a3.455 3.455 0 0 1 2.95 3.419V75.74a3.453 3.453 0 0 1-3.45 3.455H65.408l.192.644 2.371 7.91.107.356h2.1v.977h-20.73v-.977h2.1l.107-.357 2.37-7.91.194-.643H34.132a3.453 3.453 0 0 1-3.451-3.455V42.125zm35.708 45.98h.671l-.192-.644-2.371-7.91-.107-.356h-9.152l-.107.357-2.37 7.91-.193.643h13.821zM32.156 73.263h-.5v2.477a2.476 2.476 0 0 0 2.476 2.478h51.363a2.476 2.476 0 0 0 2.475-2.478v-2.477H32.156z" fill="#000" stroke="#14C1C5"/>
</svg>