<svg xmlns="http://www.w3.org/2000/svg" xmlns:xlink="http://www.w3.org/1999/xlink">
<path d="M117.925 59.159c0 32.396-26.286 58.659-58.712 58.659C26.786 117.818.5 91.555.5 59.159S26.786.5 59.213.5c32.426 0 58.712 26.263 58.712 58.659z" fill="#fff" stroke="#14C1C5"/><path d="M74.63 39.753a.437.437 0 1 1-.874 0V29.556c0-.793-.643-1.438-1.436-1.438h-34.1c-.793 0-1.437.645-1.437 1.438v42.382c0 .793.644 1.438 1.437 1.438h34.1c.793 0 1.436-.645 1.436-1.438V65.03a.437.437 0 1 1 .874 0v6.908a2.315 2.315 0 0 1-2.31 2.313h-34.1a2.315 2.315 0 0 1-2.31-2.313V29.556a2.315 2.315 0 0 1 2.31-2.313h34.1a2.315 2.315 0 0 1 2.31 2.313v10.197z" fill="#000" stroke="#14C1C5"/><path d="M49.723 46.362l-.01-.012-.012-.01a8.107 8.107 0 0 1-2.55-5.907c0-4.48 3.644-8.126 8.12-8.126 4.475 0 8.118 3.645 8.118 8.126 0 2.324-.98 4.423-2.55 5.907l-.01.01-.011.011a.45.45 0 0 1-.047.044l-.014.011-.012.012a8.08 8.08 0 0 1-5.475 2.131 8.08 8.08 0 0 1-5.474-2.13l-.013-.013-.014-.01a.417.417 0 0 1-.046-.044zm1.038-.799l-.214.38.346.264a7.204 7.204 0 0 0 4.377 1.477c1.644 0 3.16-.551 4.377-1.477l.347-.264-.214-.38a5.153 5.153 0 0 0-4.51-2.63 5.153 5.153 0 0 0-4.51 2.63zm9.522-.848l.396.587.421-.57a7.219 7.219 0 0 0 1.415-4.299c0-3.998-3.25-7.251-7.245-7.251s-7.245 3.253-7.245 7.251c0 1.608.527 3.096 1.415 4.3l.421.57.396-.588a6.001 6.001 0 0 1 2.548-2.138l.583-.259-.39-.504a2.86 2.86 0 0 1-.6-1.756v-.61a2.878 2.878 0 0 1 2.872-2.875 2.878 2.878 0 0 1 2.873 2.876v.609a2.86 2.86 0 0 1-.6 1.756l-.39.504.582.259a6.001 6.001 0 0 1 2.548 2.138zm-7.012-5.267v.61c0 1.103.896 2 2 2a2.001 2.001 0 0 0 1.998-2v-.61c0-1.102-.896-2-1.999-2a2.001 2.001 0 0 0-1.999 2zm1.999 28.865h5.059a.437.437 0 0 1 0 .875H55.27a.437.437 0 0 1 0-.876zm-8.243-5.251h13.302a.437.437 0 0 1 0 .875H47.027a.437.437 0 0 1 0-.875zm0-5.252h13.302a.437.437 0 0 1 0 .876H47.027a.437.437 0 0 1 0-.876zm-4.311-5.122a.443.443 0 0 1 .309-.128c.114 0 .229.047.31.128.08.08.127.195.127.31a.445.445 0 0 1-.127.308.445.445 0 0 1-.31.129.445.445 0 0 1-.31-.129.444.444 0 0 1-.127-.309c0-.114.047-.229.128-.31zm.309 5.122a.442.442 0 0 1 .437.438.445.445 0 0 1-.127.31.445.445 0 0 1-.31.128.445.445 0 0 1-.31-.129.445.445 0 0 1-.127-.309c0-.113.047-.228.128-.309a.445.445 0 0 1 .309-.129zm.309 5.999a.444.444 0 0 1-.31.128.443.443 0 0 1-.308-.128.445.445 0 0 1-.128-.31c0-.114.047-.228.128-.309a.445.445 0 0 1 .309-.128c.114 0 .227.047.31.128.08.08.127.195.127.31a.446.446 0 0 1-.128.309zm3.693-11.249h13.302a.437.437 0 0 1 0 .875H47.027a.437.437 0 0 1 0-.875zm29.437-11.906L64.676 61.091l11.788-20.437zm0 0a3.41 3.41 0 0 1 2.086-1.602l-2.086 1.602zM64.62 61.262l-.83 7.44a.438.438 0 0 0 .693.4l6.022-4.438a.435.435 0 0 0 .12-.134l11.788-20.437.433.25-.433-.25a3.445 3.445 0 0 0-1.257-4.697 3.406 3.406 0 0 0-2.606-.344l-13.93 22.21zm0 0a.44.44 0 0 1 .056-.17l-.056.17zm15.863-15.573l-.433-.25-3.57-2.063-.432-.25.25-.433.923-1.6a2.547 2.547 0 0 1 1.554-1.195l1.708 5.791zm0 0l.25-.434.923-1.6-.433-.25m-.74 2.284l.74-2.284m0 0l.433.25a2.551 2.551 0 0 0 .256-1.945 2.55 2.55 0 0 0-1.193-1.556 2.545 2.545 0 0 0-1.943-.256l2.447 3.507zM64.896 66.669l-.127 1.136.92-.678 3.145-2.318.615-.453-.662-.383-2.71-1.566-.663-.383-.085.76-.433 3.885zm4.757-3.206l.433.25.25-.433 9.46-16.4.25-.433-.433-.25-3.57-2.063-.432-.25-.25.433-9.46 16.4-.25.433.433.25 3.57 2.063z" fill="#000" stroke="#14C1C5"/><path d="M30.106 46.252a3.455 3.455 0 0 1 2.951-3.42v.993a2.478 2.478 0 0 0-1.975 2.427v30.16h56.313v-30.16a2.478 2.478 0 0 0-1.975-2.427v-.992a3.455 3.455 0 0 1 2.951 3.419v33.615a3.453 3.453 0 0 1-3.45 3.455H64.832l.193.644 2.37 7.91.107.356h2.101v.977h-20.73v-.977h2.1l.107-.357 2.37-7.91.193-.643H33.557a3.453 3.453 0 0 1-3.45-3.455V46.252zm35.707 45.98h.672l-.193-.644-2.37-7.91-.107-.356h-9.152l-.107.356-2.37 7.91-.194.644h13.822zM31.582 77.39h-.5v2.477a2.476 2.476 0 0 0 2.475 2.478H84.92a2.476 2.476 0 0 0 2.475-2.478V77.39H31.582z" fill="#000" stroke="#14C1C5"/></svg>