<svg xmlns="http://www.w3.org/2000/svg" xmlns:xlink="http://www.w3.org/1999/xlink">
<path d="M117.925 59.84c0 32.397-26.286 58.66-58.712 58.66C26.786 118.5.5 92.237.5 59.84.5 27.446 26.786 1.183 59.213 1.183c32.426 0 58.712 26.263 58.712 58.659z" fill="#fff" stroke="#14C1C5"/><path d="M59.924 45.4H73.06c.344 0 .626.28.626.63a.627.627 0 0 1-.626.628H59.924a.627.627 0 0 1-.626-.629c0-.348.282-.629.626-.629zm5.378 20.664l-.354-.355-1.392-1.396a.624.624 0 0 0-.884 0 .63.63 0 0 0 0 .89l2.188 2.194a.625.625 0 0 0 .884 0l3.79-3.799a.63.63 0 0 0 0-.89l-4.232 3.356zm0 0l.354-.355m-.354.355l.354-.355m0 0l2.993-3m-2.993 3l2.993-3m0 0a.624.624 0 0 1 .884 0h-.884zM59.924 51.21H73.06c.344 0 .626.28.626.629a.627.627 0 0 1-.626.629H59.924a.627.627 0 0 1-.626-.63c0-.348.282-.628.626-.628zm.136 5.81h13.135a.627.627 0 1 1 0 1.258H60.059a.627.627 0 0 1-.626-.63c0-.348.282-.629.626-.629zM33.772 37.888v-.972h50.933v.972H33.772zm8.181 15.758l-.01-.011-.012-.01a6.517 6.517 0 0 1-2.049-4.75c0-3.602 2.928-6.532 6.526-6.532s6.526 2.93 6.526 6.533a6.517 6.517 0 0 1-2.049 4.748l-.011.01-.01.012a.269.269 0 0 1-.028.026l-.014.012-.013.011a6.496 6.496 0 0 1-4.4 1.714 6.495 6.495 0 0 1-4.401-1.714l-.014-.011-.013-.011a.256.256 0 0 1-.028-.027zm.698-.633l-.214.38.347.263a5.966 5.966 0 0 0 3.624 1.224 5.967 5.967 0 0 0 3.625-1.224l.346-.263-.214-.38a4.293 4.293 0 0 0-3.757-2.19 4.29 4.29 0 0 0-3.757 2.19zm7.767-.595l.397.588.42-.57a5.977 5.977 0 0 0 1.172-3.56c0-3.31-2.69-6.004-5.999-6.004a6.008 6.008 0 0 0-5.999 6.004c0 1.331.437 2.563 1.172 3.56l.42.57.397-.588a4.8 4.8 0 0 1 2.038-1.71l.583-.258-.39-.505a2.24 2.24 0 0 1-.47-1.375v-.497a2.254 2.254 0 0 1 2.25-2.252 2.254 2.254 0 0 1 2.249 2.252v.497c0 .517-.176.993-.47 1.375l-.39.505.582.258a4.79 4.79 0 0 1 2.038 1.71zm-5.732-4.345v.497c0 .95.772 1.723 1.722 1.723s1.722-.773 1.722-1.723v-.497c0-.95-.771-1.723-1.722-1.723-.95 0-1.722.773-1.722 1.723z" fill="#000" stroke="#14C1C5"/><path d="M30.106 40.375a3.455 3.455 0 0 1 2.951-3.42v.993a2.478 2.478 0 0 0-1.975 2.427v30.16h56.313v-30.16a2.478 2.478 0 0 0-1.975-2.427v-.992a3.455 3.455 0 0 1 2.951 3.419V73.99a3.453 3.453 0 0 1-3.45 3.455H64.832l.193.644 2.37 7.91.107.356h2.101v.977h-20.73v-.977h2.1l.107-.357 2.37-7.91.193-.643H33.557a3.453 3.453 0 0 1-3.45-3.455V40.375zm35.707 45.98h.672l-.193-.644-2.37-7.91-.107-.356h-9.152l-.107.357-2.37 7.91-.194.643h13.822zM31.582 71.513h-.5v2.477a2.476 2.476 0 0 0 2.475 2.478H84.92a2.476 2.476 0 0 0 2.475-2.478v-2.477H31.582z" fill="#000" stroke="#14C1C5"/>
</svg>