<svg xmlns="http://www.w3.org/2000/svg" xmlns:xlink="http://www.w3.org/1999/xlink">
<path d="M118.657 59.159c0 32.396-26.286 58.659-58.713 58.659-32.426 0-58.712-26.263-58.712-58.659S27.518.5 59.944.5c32.427 0 58.713 26.263 58.713 58.659z" fill="#fff" stroke="#14C1C5"/><path d="M30.838 45.09a3.454 3.454 0 0 1 2.95-3.418v.992a2.477 2.477 0 0 0-1.975 2.426v30.161h56.314v-30.16a2.477 2.477 0 0 0-1.975-2.427v-.992a3.454 3.454 0 0 1 2.95 3.419v33.615a3.453 3.453 0 0 1-3.45 3.455H65.565l.193.644 2.37 7.909.107.356h2.1v.978h-20.73v-.978h2.101l.106-.356 2.371-7.91.193-.643H34.289a3.453 3.453 0 0 1-3.451-3.455V45.09zm35.707 45.98h.671l-.192-.643-2.37-7.91-.108-.356h-9.152l-.106.356-2.371 7.91-.193.643h13.821zM32.313 76.23h-.5v2.476a2.476 2.476 0 0 0 2.476 2.477h51.363a2.476 2.476 0 0 0 2.475-2.477V76.23H32.313z" fill="#000" stroke="#14C1C5"/><path d="M37.74 72.274h-.976V37.181a3.453 3.453 0 0 1 3.451-3.454h39.51a3.453 3.453 0 0 1 3.451 3.454v35.093h-.975V37.181a2.476 2.476 0 0 0-2.476-2.477h-39.51a2.476 2.476 0 0 0-2.475 2.477v35.093z" fill="#000" stroke="#14C1C5"/><path d="M40.715 38.17a.489.489 0 1 1 .978 0 .489.489 0 0 1-.978 0zm3.951 0a.488.488 0 1 1 .977 0 .488.488 0 0 1-.977 0zm3.951 0a.489.489 0 1 1 .977 0 .489.489 0 0 1-.977 0zm-7.902 3.954c0-.27.22-.488.49-.488h37.531a.489.489 0 0 1 0 .977H41.204a.489.489 0 0 1-.489-.489zM41.69 53v.5h8.904v-6.932H41.69V53zm8.403-7.41c.814 0 1.475.662 1.475 1.478V53c0 .817-.66 1.478-1.475 1.478H42.19A1.477 1.477 0 0 1 40.714 53v-5.932c0-.816.661-1.477 1.476-1.477h7.902zM55.52 53v.5h8.901v-6.932H55.52V53zm8.401-7.41c.815 0 1.476.662 1.476 1.478V53c0 .817-.661 1.478-1.476 1.478H56.02A1.476 1.476 0 0 1 54.545 53v-5.932c0-.816.66-1.477 1.475-1.477h7.902zM69.348 53v.5h8.902v-6.932h-8.902V53zm8.402-7.41c.814 0 1.475.662 1.475 1.478V53c0 .817-.66 1.478-1.475 1.478h-7.902A1.477 1.477 0 0 1 68.372 53v-5.932c0-.816.661-1.477 1.476-1.477h7.902zM41.69 64.865v.5h8.904v-6.932H41.69v6.432zm8.403-7.41c.814 0 1.475.66 1.475 1.477v5.933c0 .816-.66 1.477-1.475 1.477H42.19c-.815 0-1.476-.66-1.476-1.477v-5.932c0-.817.661-1.478 1.476-1.478h7.902zm5.427 7.41v.5h8.901v-6.932H55.52v6.432zm8.401-7.41c.815 0 1.476.66 1.476 1.477v5.933c0 .816-.661 1.477-1.476 1.477H56.02c-.814 0-1.475-.66-1.475-1.477v-5.932c0-.817.66-1.478 1.475-1.478h7.902zm5.427 7.41v.5h8.902v-6.932h-8.902v6.432zm8.402-7.41c.814 0 1.475.66 1.475 1.477v5.933c0 .816-.66 1.477-1.475 1.477h-7.902c-.815 0-1.476-.66-1.476-1.477v-5.932c0-.817.661-1.478 1.476-1.478h7.902zM42.19 70.297h-.5v1.977h-.975v-1.477c0-.817.661-1.478 1.476-1.478h7.902c.814 0 1.475.661 1.475 1.478v1.477h-.975v-1.977H42.19zm13.83 0h-.5v1.977h-.976v-1.477c0-.817.66-1.478 1.475-1.478h7.902c.815 0 1.476.661 1.476 1.478v1.477h-.976v-1.977H56.02zm13.828 0h-.5v1.977h-.976v-1.477c0-.817.661-1.478 1.476-1.478h7.902c.814 0 1.475.661 1.475 1.478v1.477h-.975v-1.977h-8.402z" fill="#000" stroke="#14C1C5"/>
</svg>