<svg xmlns="http://www.w3.org/2000/svg" width="25" height="25" viewBox="0 0 25 25"><g><g><path fill="#1a1919" fill-opacity=".5" d="M8.317 24.951c-.222 0-.433-.03-.644-.096L1.416 22.77A2.098 2.098 0 0 1 0 20.793V2.079C0 .933.933 0 2.08 0h11.695a2.861 2.861 0 0 1 2.86 2.86v4.677a.78.78 0 0 1-1.56 0V2.86c0-.716-.583-1.3-1.3-1.3h-6.66l1.865.622a2.098 2.098 0 0 1 1.416 1.977v16.115h3.38c.716 0 1.299-.583 1.299-1.3v-4.678a.78.78 0 0 1 1.56 0v4.678a2.861 2.861 0 0 1-2.86 2.86h-3.379v1.039c0 1.147-.932 2.08-2.079 2.08zM1.56 2.08v18.714a.54.54 0 0 0 .361.5l6.228 2.076a.565.565 0 0 0 .17.023c.285 0 .519-.234.519-.52V4.158a.54.54 0 0 0-.36-.5L2.248 1.581a.564.564 0 0 0-.17-.023.521.521 0 0 0-.52.52zm12.736 9.617a.78.78 0 0 1 0-1.56h7.996l-2.57-2.568a.78.78 0 1 1 1.104-1.103l3.899 3.898a.78.78 0 0 1-.018 1.121l-3.881 3.88a.775.775 0 0 1-1.103.002.78.78 0 0 1 0-1.103l2.567-2.567z"/></g></g></svg>